<svg width="13" height="13" viewBox="0 0 13 13" fill="none" xmlns="http://www.w3.org/2000/svg">
<path d="M12.75 3.52498C12.7505 3.44273 12.7347 3.36119 12.7036 3.28504C12.6725 3.20889 12.6267 3.13963 12.5688 3.08123L9.91876 0.43123C9.86036 0.373304 9.7911 0.327476 9.71495 0.296373C9.6388 0.26527 9.55727 0.249504 9.47501 0.24998C9.39276 0.249504 9.31122 0.26527 9.23507 0.296373C9.15892 0.327476 9.08966 0.373304 9.03126 0.43123L7.26251 2.19998L0.43126 9.03123C0.373335 9.08963 0.327506 9.15889 0.296403 9.23504C0.265301 9.31119 0.249535 9.39273 0.25001 9.47498V12.125C0.25001 12.2907 0.315858 12.4497 0.433069 12.5669C0.550279 12.6841 0.70925 12.75 0.87501 12.75H3.52501C3.61247 12.7547 3.69994 12.7411 3.78177 12.7098C3.8636 12.6786 3.93796 12.6305 4.00001 12.5687L10.7938 5.73748L12.5688 3.99998C12.6258 3.93941 12.6723 3.86969 12.7063 3.79373C12.7123 3.74391 12.7123 3.69355 12.7063 3.64373C12.7092 3.61464 12.7092 3.58532 12.7063 3.55623L12.75 3.52498ZM3.26876 11.5H1.50001V9.73123L7.70626 3.52498L9.47501 5.29373L3.26876 11.5ZM10.3563 4.41248L8.58751 2.64373L9.47501 1.76248L11.2375 3.52498L10.3563 4.41248Z" fill="black"/>
</svg>
