<svg width="13" height="15" viewBox="0 0 13 15" fill="none" xmlns="http://www.w3.org/2000/svg">
<path d="M5.08333 11.75C5.27119 11.75 5.45136 11.6754 5.5842 11.5425C5.71704 11.4097 5.79167 11.2295 5.79167 11.0417V6.79166C5.79167 6.6038 5.71704 6.42363 5.5842 6.29079C5.45136 6.15795 5.27119 6.08332 5.08333 6.08332C4.89547 6.08332 4.7153 6.15795 4.58247 6.29079C4.44963 6.42363 4.375 6.6038 4.375 6.79166V11.0417C4.375 11.2295 4.44963 11.4097 4.58247 11.5425C4.7153 11.6754 4.89547 11.75 5.08333 11.75ZM12.1667 3.24999H9.33333V2.54166C9.33333 1.97807 9.10945 1.43757 8.71094 1.03905C8.31242 0.64054 7.77192 0.416656 7.20833 0.416656H5.79167C5.22808 0.416656 4.68758 0.64054 4.28906 1.03905C3.89055 1.43757 3.66667 1.97807 3.66667 2.54166V3.24999H0.833333C0.645472 3.24999 0.465304 3.32462 0.332466 3.45746C0.199628 3.59029 0.125 3.77046 0.125 3.95832C0.125 4.14619 0.199628 4.32635 0.332466 4.45919C0.465304 4.59203 0.645472 4.66666 0.833333 4.66666H1.54167V12.4583C1.54167 13.0219 1.76555 13.5624 2.16406 13.9609C2.56258 14.3594 3.10308 14.5833 3.66667 14.5833H9.33333C9.89692 14.5833 10.4374 14.3594 10.8359 13.9609C11.2345 13.5624 11.4583 13.0219 11.4583 12.4583V4.66666H12.1667C12.3545 4.66666 12.5347 4.59203 12.6675 4.45919C12.8004 4.32635 12.875 4.14619 12.875 3.95832C12.875 3.77046 12.8004 3.59029 12.6675 3.45746C12.5347 3.32462 12.3545 3.24999 12.1667 3.24999ZM5.08333 2.54166C5.08333 2.35379 5.15796 2.17363 5.2908 2.04079C5.42364 1.90795 5.6038 1.83332 5.79167 1.83332H7.20833C7.39619 1.83332 7.57636 1.90795 7.7092 2.04079C7.84204 2.17363 7.91667 2.35379 7.91667 2.54166V3.24999H5.08333V2.54166ZM10.0417 12.4583C10.0417 12.6462 9.96704 12.8264 9.8342 12.9592C9.70136 13.092 9.52119 13.1667 9.33333 13.1667H3.66667C3.4788 13.1667 3.29864 13.092 3.1658 12.9592C3.03296 12.8264 2.95833 12.6462 2.95833 12.4583V4.66666H10.0417V12.4583ZM7.91667 11.75C8.10453 11.75 8.2847 11.6754 8.41753 11.5425C8.55037 11.4097 8.625 11.2295 8.625 11.0417V6.79166C8.625 6.6038 8.55037 6.42363 8.41753 6.29079C8.2847 6.15795 8.10453 6.08332 7.91667 6.08332C7.7288 6.08332 7.54864 6.15795 7.4158 6.29079C7.28296 6.42363 7.20833 6.6038 7.20833 6.79166V11.0417C7.20833 11.2295 7.28296 11.4097 7.4158 11.5425C7.54864 11.6754 7.7288 11.75 7.91667 11.75Z" fill="black"/>
</svg>
